<svg xmlns="http://www.w3.org/2000/svg" viewBox="68.381042 111.88104 73.237915 73.237915">
  <rect
       style="fill:#182b0c;fill-opacity:1;stroke-width:2.86499"
       id="rect1"
       width="73.237915"
       height="73.237915"
       x="68.381042"
       y="111.88104"
       rx="12.144981"
       ry="12.144981" />
  <path
       style="fill:#ffffff;fill-opacity:1;stroke-width:0.242969"
       d="m 104.65268,181.53547 c -3.48417,-0.20652 -6.683153,-0.9611 -10.03398,-2.36684 -3.89119,-1.63242 -7.489865,-4.03534 -10.152286,-6.77887 -1.304208,-1.34395 -2.186884,-2.48603 -3.096284,-4.00621 -1.000548,-1.67256 -1.617917,-3.22536 -1.919175,-4.82708 -0.156869,-0.834 -0.176101,-2.90911 -0.03465,-3.74093 0.202092,-1.18866 0.747801,-2.63287 1.398712,-3.70171 l 0.256673,-0.42147 -0.0801,-0.67257 c -0.04409,-0.36992 -0.272279,-2.42273 -0.50715,-4.56181 -0.412495,-3.75679 -0.436618,-3.9211 -0.708188,-4.82499 -0.154628,-0.51466 -0.389667,-1.12525 -0.522317,-1.35687 l -0.24117,-0.42109 -0.501109,0.008 c -0.559623,0.008 -0.757423,-0.0712 -1.046084,-0.4223 -0.304496,-0.37029 -0.152432,-0.93869 0.315092,-1.17785 0.205694,-0.10524 0.42036,-0.13574 1.282055,-0.18235 0.569254,-0.0309 1.040336,-0.0599 1.046862,-0.0647 0.0066,-0.005 -0.128015,-2.24573 -0.298975,-4.97985 -0.170951,-2.73412 -0.31143,-5.09817 -0.31217,-5.25344 -7.33e-4,-0.23941 0.03245,-0.31027 0.221104,-0.46641 l 0.222443,-0.18412 -0.0438,-0.96405 c -0.03728,-0.8206 -0.01281,-1.22117 0.164324,-2.69177 0.114454,-0.95023 0.322152,-2.70145 0.461533,-3.8916 0.229649,-1.9609 0.267439,-2.17625 0.402828,-2.29552 0.09581,-0.0844 0.232197,-0.13163 0.380227,-0.13163 0.12696,0 0.242927,-0.0198 0.257713,-0.0438 0.0148,-0.0242 -0.02615,-0.8992 -0.09103,-1.9446 -0.100757,-1.62421 -0.104251,-1.97837 -0.02395,-2.43431 0.09348,-0.53102 0.274214,-1.24136 0.326935,-1.28501 0.03977,-0.0329 0.535229,1.29577 0.612726,1.64312 0.03589,0.16083 0.100311,0.97669 0.143181,1.81302 0.04284,0.83632 0.09573,1.67024 0.117489,1.85314 l 0.03954,0.33255 0.283499,-0.004 c 0.190864,-0.002 0.328575,0.034 0.421408,0.11084 0.109703,0.0908 0.325191,0.89035 1.054001,3.91084 0.835704,3.46345 0.922554,3.88345 0.989512,4.78524 0.07272,0.97901 0.07536,0.99008 0.275824,1.14507 0.252206,0.19499 0.259441,0.23528 0.352245,1.9603 0.145451,2.70382 0.500829,8.3651 0.536766,8.55099 l 0.03625,0.18766 1.039611,-0.0336 c 1.011863,-0.0326 1.046202,-0.0297 1.286925,0.10593 0.887451,0.50031 0.487743,1.628 -0.577185,1.62836 -0.509707,1.9e-4 -0.611437,0.10874 -0.834818,0.89055 -0.312632,1.0942 -0.354544,1.57024 -0.354544,4.02675 0,1.28956 0.02388,2.33563 0.05302,2.3246 0.02914,-0.0105 0.353109,-0.14757 0.719912,-0.30341 0.889619,-0.37798 1.75499,-0.64617 2.866167,-0.88825 1.593801,-0.34725 2.115766,-0.39629 4.31037,-0.40497 l 1.978532,-0.008 0.88327,-0.48403 c 2.129226,-1.1668 4.702176,-1.96821 7.172176,-2.23397 0.94134,-0.10126 2.95719,-0.0864 3.94299,0.029 4.69975,0.55053 8.57421,2.87271 10.54701,6.32143 0.61877,1.0817 1.16943,2.64226 1.28087,3.62988 0.0233,0.20698 0.0629,0.37633 0.088,0.37633 0.025,0 0.16875,-1.30221 0.31938,-2.89378 0.29998,-3.16945 0.29954,-3.18603 -0.0924,-3.54899 -0.14944,-0.13845 -0.28225,-0.19131 -0.57773,-0.22997 -0.85672,-0.11213 -1.29482,-0.74717 -0.90172,-1.30717 0.2629,-0.37454 0.53173,-0.46793 1.30029,-0.45168 l 0.65265,0.0138 0.0412,-0.30905 c 0.0227,-0.16997 0.1048,-0.98015 0.18264,-1.8004 0.0777,-0.82025 0.33102,-3.49154 0.56275,-5.93621 0.23172,-2.44465 0.43752,-4.55669 0.45733,-4.6934 0.0303,-0.20948 0.0164,-0.24856 -0.0883,-0.24856 -0.0683,0 -0.19773,-0.0426 -0.28752,-0.0947 -0.15861,-0.0919 -0.16196,-0.11237 -0.11714,-0.71644 0.0254,-0.34197 0.0926,-0.85611 0.14941,-1.14252 0.2564,-1.29204 1.15339,-2.30346 2.54906,-2.87423 0.77686,-0.31771 0.84116,-0.46818 1.08582,-2.54122 0.15398,-1.30479 0.27961,-1.74924 0.68601,-2.42712 0.22646,-0.37776 0.40703,-0.53688 0.70006,-0.61693 0.1715,-0.0468 0.2372,-0.0999 0.2379,-0.19177 0.004,-0.43596 0.36103,-3.79503 0.42459,-3.98704 0.0427,-0.12867 0.19312,-0.52343 0.33451,-0.87727 l 0.25706,-0.64332 0.0903,0.32166 c 0.0497,0.17691 0.14002,0.598 0.20075,0.93574 0.10541,0.58621 0.10227,0.70149 -0.0693,2.53891 -0.0989,1.05866 -0.17161,1.92911 -0.16169,1.93432 0.56864,0.29933 0.74837,0.57464 0.9721,1.48901 0.13827,0.56513 0.14388,0.68124 0.0748,1.54985 -0.10541,1.32488 -0.0957,2.00854 0.0328,2.31754 0.0892,0.21452 0.19367,0.30901 0.60863,0.55046 1.61953,0.94234 2.20196,2.18513 1.98185,4.22882 -0.0391,0.36316 -0.10964,0.69872 -0.15672,0.74567 -0.047,0.047 -0.1771,0.0854 -0.28894,0.0854 -0.11182,0 -0.20353,0.0198 -0.20378,0.0439 -5.3e-4,0.0524 -0.85199,9.05618 -1.05721,11.17947 -0.19665,2.03469 -0.25151,1.79593 0.42136,1.8341 0.84908,0.0482 1.25529,0.29786 1.31992,0.81139 0.0241,0.19072 -0.01,0.32068 -0.13143,0.51409 -0.2082,0.32952 -0.52477,0.47222 -1.04766,0.47222 -0.52171,0 -0.80402,0.15671 -1.02898,0.57125 -0.10469,0.19281 -0.36165,2.65006 -1.26154,12.06144 -0.21377,2.23558 -0.42116,4.22259 -0.46087,4.4156 -0.22802,1.10801 -1.31574,1.98673 -2.85962,2.31016 -0.30777,0.0644 -0.57019,0.126 -0.58315,0.13674 -0.0129,0.0105 -0.11689,0.29359 -0.231,0.62857 -0.39178,1.15051 -1.12156,2.44898 -1.98263,3.52766 -3.04775,3.818 -8.27457,6.39049 -14.27373,7.02507 -0.85297,0.0903 -3.37183,0.15582 -4.16904,0.10851 z m 4.62175,-0.72076 c 6.7613,-0.86428 12.44037,-4.3383 14.69469,-8.98907 0.29935,-0.61758 0.648,-1.5322 0.59793,-1.56859 -0.0127,-0.009 -0.23336,-0.035 -0.49035,-0.0571 l -0.46722,-0.0402 -0.11835,0.39006 c -0.1623,0.53476 -0.66745,1.55794 -1.07399,2.17539 -1.22698,1.86348 -3.12098,3.55018 -5.39863,4.8078 -4.79856,2.64955 -11.08748,3.37399 -17.030866,1.96181 -9.419226,-2.23804 -17.667569,-9.27666 -18.896133,-16.12479 -0.254777,-1.42018 -0.210345,-2.77713 0.136253,-4.1605 0.168924,-0.67422 0.17027,-0.70238 0.07243,-1.50925 -0.05486,-0.45222 -0.112774,-0.83306 -0.128776,-0.84629 -0.04973,-0.0412 -0.544449,1.0818 -0.727793,1.65192 -0.0959,0.29821 -0.224091,0.76092 -0.284876,1.02826 -0.150533,0.66204 -0.208609,2.6628 -0.100008,3.44549 0.714273,5.14797 5.161585,10.52584 11.715401,14.1667 3.551497,1.97298 7.359506,3.22793 11.111988,3.66202 1.47128,0.1702 1.40961,0.16757 3.49776,0.14895 1.52183,-0.0136 2.10671,-0.0424 2.89055,-0.14262 z m -0.38205,-1.31774 c 3.65938,-0.47771 6.85484,-1.66092 9.43335,-3.49296 2.05245,-1.45828 3.60076,-3.31776 4.37913,-5.25923 0.27873,-0.69518 0.29033,-0.7529 0.15138,-0.7529 -0.0538,0 -0.36202,-0.10944 -0.68495,-0.24323 -1.07721,-0.44625 -1.8501,-1.2565 -2.04146,-2.14015 -0.065,-0.30033 -0.047,-0.70793 0.10094,-2.28092 0.0991,-1.05337 0.19872,-2.00735 0.22144,-2.11992 0.0739,-0.36598 -0.0319,-0.1552 -0.28019,0.55842 -0.78331,2.2518 -2.40066,4.80531 -4.25819,6.72292 -0.34276,0.35383 -1.09169,1.02958 -1.66431,1.50165 -5.94539,4.90146 -14.618726,6.28448 -21.536246,3.43412 -3.818908,-1.57359 -6.632529,-4.07443 -8.152157,-7.24591 -0.386327,-0.80629 -0.579184,-1.37263 -0.786672,-2.31015 l -0.155317,-0.70182 -0.361209,-0.0371 c -0.198664,-0.0204 -0.472672,-0.0941 -0.608903,-0.16379 -0.488644,-0.24996 -0.51834,-0.33969 -0.768921,-2.3233 l -0.227848,-1.80371 -0.02153,0.70181 c -0.08641,2.81346 1.376337,6.05124 4.121806,9.12362 1.433951,1.6047 3.515949,3.30788 5.651078,4.62286 4.062523,2.50203 8.340809,3.93075 12.931109,4.3183 0.70294,0.0594 3.84448,-0.0155 4.55768,-0.10862 z m -6.2917,-3.28317 c 6.70181,-0.71093 12.66467,-4.50963 15.72972,-10.0208 1.03904,-1.86829 1.63899,-3.59781 1.97894,-5.70489 0.14725,-0.91267 0.16876,-2.88756 0.0404,-3.71378 -0.44231,-2.84817 -1.64959,-4.99013 -3.8238,-6.78423 -1.94579,-1.6056 -4.34478,-2.60642 -7.24496,-3.02245 -0.98425,-0.1412 -3.52516,-0.14042 -4.52235,0.001 -2.42395,0.34469 -4.69555,1.1113 -6.67754,2.25357 -3.747877,2.15996 -6.420045,5.39128 -7.566622,9.14993 -0.40753,1.33596 -0.513179,2.08405 -0.517638,3.66544 -0.0044,1.60824 0.07984,2.21933 0.488498,3.53834 1.093871,3.5306 3.872734,6.43524 7.560426,7.90264 1.481304,0.58943 2.896976,0.90072 4.628356,1.01773 1.57856,0.10663 2.25291,0.0183 3.81573,-0.49976 3.19369,-1.05879 5.88735,-2.7847 8.04474,-5.15453 0.41029,-0.45068 0.59601,-0.71865 0.77016,-1.11121 1.28492,-2.89632 0.94543,-6.2423 -0.92177,-9.08501 -2.534,-3.85783 -7.8727,-7.05437 -14.06706,-8.4226 l -0.821192,-0.18138 -0.537206,0.31024 c -0.527744,0.30479 -0.533662,0.31098 -0.33584,0.35115 2.031498,0.41255 2.649418,0.55932 3.664308,0.87031 1.34183,0.41118 3.57118,1.31172 4.6985,1.89795 0.40807,0.2122 1.09852,0.60921 1.53433,0.88224 3.61171,2.26267 5.74724,4.90428 6.42459,7.94707 0.20128,0.90425 0.18299,2.88081 -0.0343,3.71378 -1.01936,3.90642 -4.51083,6.7881 -9.15712,7.55779 -1.13821,0.18855 -3.19237,0.18645 -4.3465,-0.005 -2.063657,-0.34133 -3.733952,-0.98657 -5.380906,-2.07863 -4.427657,-2.93589 -6.192262,-8.2439 -4.44335,-13.36578 1.523268,-4.46105 5.344752,-8.07011 10.245006,-9.67549 3.34355,-1.0954 7.23157,-1.08943 10.31045,0.0158 2.68094,0.96241 4.66534,2.51246 5.95919,4.65486 0.91767,1.5195 1.30928,2.91837 1.37528,4.91272 0.0805,2.43133 -0.40561,4.58834 -1.58137,7.01746 -1.11812,2.31002 -2.60216,4.16634 -4.75026,5.94191 -1.15551,0.95511 -1.70095,1.32834 -2.95419,2.02147 -2.24788,1.24323 -4.78307,2.05321 -7.51116,2.39979 -1.13541,0.14424 -3.539975,0.14251 -4.663682,-0.004 -2.62603,-0.34087 -5.075607,-1.19274 -7.136836,-2.48192 -1.120624,-0.70088 -2.565041,-1.97113 -3.371033,-2.96453 -1.063727,-1.31109 -1.979096,-3.22282 -2.177226,-4.54714 l -0.05031,-0.33628 -0.398163,7e-4 c -0.578284,0.001 -0.581609,0.006 -0.461585,0.58475 0.703698,3.39594 3.211308,6.46897 6.917616,8.47738 3.273543,1.77391 7.225194,2.50043 11.267759,2.07161 z m -1.41044,-1.29229 c -1.628569,-0.23648 -3.530745,-0.87173 -5.003657,-1.67106 -5.195816,-2.81971 -7.795554,-8.20937 -6.649665,-13.78582 0.580547,-2.8252 2.169389,-5.66539 4.400464,-7.8662 l 0.592894,-0.58484 -0.256102,-0.0191 c -0.355233,-0.0264 -1.53872,0.0915 -2.33186,0.23254 -1.393006,0.24757 -3.079149,0.83014 -4.248466,1.46786 l -0.459306,0.25049 v 5.71129 c 0,5.70324 -2.13e-4,5.71153 -0.147817,5.87681 -0.209012,0.23401 -0.572418,0.42443 -0.890314,0.4665 -0.26826,0.0354 -0.271424,0.0389 -0.227747,0.24766 0.328334,1.56886 1.037437,3.05762 2.064722,4.33481 2.024634,2.51719 4.929212,4.22396 8.503244,4.99666 1.373379,0.29692 2.102555,0.37278 3.55836,0.37024 0.69955,-0.001 1.19242,-0.0138 1.09525,-0.0279 z m 4.59302,-1.91573 c 2.14425,-0.39522 3.87564,-1.18474 5.44653,-2.48365 1.3225,-1.09353 2.13965,-2.2005 2.70112,-3.65918 0.37294,-0.96889 0.49769,-1.65911 0.4968,-2.74878 -0.001,-1.71763 -0.40789,-3.09972 -1.36546,-4.64265 -0.7597,-1.22411 -1.63898,-2.17853 -3.05581,-3.31695 -2.95349,-2.37312 -7.0505,-4.12461 -11.346479,-4.85068 l -0.927759,-0.15679 -0.273811,0.17949 c -0.384138,0.25181 -1.50115,1.22796 -2.010938,1.75734 -1.149661,1.19384 -2.284462,2.88813 -2.86479,4.27722 -1.837145,4.39742 -1.094105,8.88979 2.005293,12.12382 1.809865,1.88849 4.279941,3.13184 7.061594,3.55459 0.91492,0.13903 3.3019,0.11953 4.13371,-0.0338 z m 20.01732,-3.45684 c 1.12804,-0.24193 2.01632,-0.90393 2.23714,-1.66724 0.08,-0.27647 0.36304,-2.99116 0.31604,-3.03102 -0.0155,-0.0131 -1.34002,-0.11178 -2.94354,-0.21924 -1.60351,-0.10745 -3.23345,-0.2172 -3.62208,-0.24377 -0.38865,-0.0265 -0.7246,-0.0263 -0.74656,4.5e-4 -0.0764,0.0934 -0.29855,2.78857 -0.25298,3.06937 0.10977,0.67638 0.84086,1.45597 1.68512,1.79689 0.90909,0.36711 2.38085,0.49739 3.32686,0.29449 z m -1.62762,-0.67416 c -0.13712,-0.11795 -0.10844,-0.39046 0.0483,-0.45993 0.0752,-0.0333 0.2898,-0.0608 0.47696,-0.0611 0.4006,-6.5e-4 0.95388,-0.19724 1.24832,-0.44352 0.38818,-0.32466 0.47033,-0.54814 0.58513,-1.59169 0.059,-0.53608 0.14056,-1.00792 0.18128,-1.04853 0.10312,-0.10278 0.37426,-0.0923 0.4856,0.0187 0.14263,0.14223 -0.032,1.91213 -0.23237,2.35543 -0.20716,0.45824 -0.79455,0.93868 -1.36281,1.11467 -0.52307,0.16197 -1.30344,0.22523 -1.43047,0.11599 z m -7.02171,-3.8187 c 0.49848,-0.97862 0.78331,-1.70301 1.10619,-2.81343 1.12734,-3.87687 0.59257,-7.316 -1.5551,-10.00088 -0.6145,-0.7682 -1.98218,-1.88366 -2.96963,-2.42198 -3.20256,-1.74591 -7.0813,-2.1156 -10.9879,-1.04726 -0.92099,0.25186 -2.33184,0.77968 -2.33184,0.87237 0,0.0219 0.11924,0.0578 0.26498,0.0799 0.45338,0.0687 2.48501,0.65006 3.3741,0.96553 6.24462,2.21571 10.65933,5.91397 12.14969,10.17793 0.41848,1.19727 0.49943,1.73476 0.49327,3.27514 -0.003,0.75591 -0.0401,1.5059 -0.0825,1.66663 -0.11696,0.44408 0.0412,0.2227 0.5387,-0.75396 z m -32.107226,-0.53612 c 1.038418,-0.0396 1.343763,-0.0975 1.459379,-0.27629 0.05968,-0.0924 0.06708,-2.42548 0.02864,-9.07509 -0.03757,-6.50443 -0.03003,-9.08661 0.02754,-9.44786 0.105448,-0.66109 0.344987,-1.65332 0.469867,-1.94627 0.05529,-0.12975 0.09227,-0.24269 0.08214,-0.25097 -0.01015,-0.008 -1.417523,0.0478 -3.127541,0.12468 -1.710016,0.0768 -3.334348,0.14036 -3.609637,0.14114 -0.275282,7e-4 -0.518884,0.0166 -0.541323,0.0352 -0.02241,0.0186 0.03903,0.18306 0.136627,0.36552 0.09759,0.18246 0.299713,0.72825 0.449163,1.21284 0.291562,0.94538 0.239478,0.56742 0.954629,6.92663 0.732642,6.5147 1.343244,11.66973 1.411667,11.91808 0.02021,0.0733 0.139241,0.18649 0.264502,0.25136 0.185855,0.0962 0.305755,0.11225 0.651731,0.087 0.233179,-0.0169 0.837336,-0.0466 1.342568,-0.0661 z m -1.53511,-1.00526 c -0.08218,-0.0775 -0.170277,-0.64073 -0.363677,-2.32477 -0.814611,-7.09347 -0.992938,-8.65811 -1.315772,-11.54476 -0.321573,-2.87539 -0.424791,-3.53195 -0.716946,-4.56064 -0.08485,-0.29876 -0.08155,-0.31974 0.06599,-0.41859 0.200092,-0.13411 0.429001,-0.0845 0.519542,0.11237 0.119023,0.25899 0.401956,1.41134 0.482661,1.96587 0.04212,0.28951 0.235369,1.97386 0.429419,3.74302 0.194051,1.76916 0.510761,4.57204 0.703801,6.22863 0.769953,6.60731 0.777475,6.68557 0.653928,6.79885 -0.06137,0.0564 -0.165372,0.10231 -0.231049,0.10231 -0.06569,0 -0.16822,-0.0461 -0.22787,-0.10231 z m 44.956726,0.58351 c 0,-0.0892 0.064,-0.80636 0.1423,-1.5937 0.0782,-0.78736 0.23649,-2.40532 0.35159,-3.59549 0.11509,-1.19017 0.32291,-3.33509 0.46176,-4.7665 0.13886,-1.43141 0.28237,-2.69469 0.31893,-2.80727 0.0365,-0.1126 0.14395,-0.30997 0.23866,-0.43863 l 0.17222,-0.23394 -3.72219,-0.24513 c -2.0472,-0.13482 -3.86773,-0.24667 -4.04562,-0.24855 l -0.32344,-0.004 0.14019,0.35391 0.1402,0.35391 -0.29177,2.9651 c -0.68556,6.96746 -0.9595,9.89193 -0.92891,9.91678 0.0314,0.0256 6.54103,0.48329 7.08109,0.49793 0.24458,0.006 0.26499,-0.005 0.26499,-0.15498 z m -1.48111,-0.75996 -0.1542,-0.10336 0.39506,-4.12218 c 0.70539,-7.36047 0.70648,-7.37028 0.81932,-7.42936 0.17222,-0.0902 0.41176,-0.0622 0.48893,0.0572 0.0526,0.0814 -0.0653,1.54564 -0.42251,5.249 -0.66652,6.90892 -0.5933,6.28232 -0.74474,6.37398 -0.16639,0.10067 -0.19692,0.0987 -0.38186,-0.0253 z M 88.241629,151.769 c 1.741947,-0.80138 3.843375,-1.26462 6.130401,-1.35139 l 0.91925,-0.0348 0.49071,-0.37176 0.490716,-0.37177 h -1.279821 c -0.756185,0 -1.636643,0.038 -2.151916,0.093 -1.71474,0.18266 -3.571402,0.675 -4.988135,1.32272 l -0.65362,0.29883 v 0.46541 0.4654 l 0.19432,-0.10733 c 0.106875,-0.059 0.488513,-0.2427 0.848095,-0.40811 z m 43.646031,-1.69534 c 0.16178,-0.13391 0.13814,-0.35908 -0.048,-0.45661 -0.11109,-0.0582 -0.87154,-0.12952 -2.52615,-0.23678 -9.10488,-0.59022 -8.63571,-0.56517 -8.81044,-0.4704 -0.1996,0.10827 -0.2128,0.32339 -0.0283,0.46156 0.11448,0.0858 0.66878,0.13621 3.62139,0.32947 1.91741,0.12552 4.21754,0.27825 5.11141,0.33941 2.12632,0.1455 2.53837,0.15062 2.68008,0.0333 z m -1.79681,-1.21949 c 0,-0.0504 0.57422,-6.10107 0.77469,-8.16314 0.35577,-3.65916 0.45511,-4.79164 0.42262,-4.81753 -0.0173,-0.0137 -0.90584,-0.0815 -1.97459,-0.15064 -1.06875,-0.0691 -2.70067,-0.17701 -3.62648,-0.23978 -0.92581,-0.0628 -1.75594,-0.11412 -1.84473,-0.11412 -0.1526,0 -0.16405,0.0288 -0.20938,0.52579 -0.0264,0.28919 -0.14187,1.5064 -0.25668,2.70492 -0.11484,1.19851 -0.37055,3.87237 -0.56837,5.9419 -0.19782,2.06953 -0.34037,3.77873 -0.3168,3.79825 0.0236,0.0195 1.6716,0.14551 3.66229,0.28003 4.10718,0.2775 3.93743,0.26739 3.93743,0.23435 z m -3.90311,-0.72096 c -0.0601,-0.0564 -0.29,-0.40192 -0.51088,-0.76807 -0.40001,-0.66312 -0.45333,-0.88785 -0.22765,-0.95952 0.0516,-0.0164 0.56391,0.001 1.13838,0.0391 0.88854,0.0587 1.05924,0.0856 1.14329,0.18076 0.0544,0.0615 0.0988,0.12969 0.0988,0.1515 0,0.0484 -0.95089,1.14356 -1.15216,1.327 -0.17326,0.15789 -0.34167,0.16794 -0.48979,0.0292 z m 0.72069,-0.81043 c 0.23926,-0.27686 0.42519,-0.51023 0.41316,-0.51857 -0.0121,-0.008 -0.38104,-0.0333 -0.82002,-0.0555 l -0.79816,-0.0403 0.18867,0.31035 c 0.22173,0.36473 0.52854,0.80748 0.55955,0.80748 0.0121,0 0.21752,-0.22653 0.4568,-0.50339 z m 2.31703,0.51927 c -0.28133,-0.0243 -0.4393,-0.16956 -0.36314,-0.33381 0.0583,-0.1256 0.28848,-0.1645 0.62791,-0.10605 0.22371,0.0385 0.28772,0.078 0.30702,0.18919 0.0218,0.12594 -0.15362,0.31185 -0.26754,0.28348 -0.0218,-0.006 -0.15863,-0.0202 -0.30425,-0.0327 z m -5.98877,-0.41791 c -0.13716,-0.0325 -0.17664,-0.0806 -0.17664,-0.2147 v -0.17282 h 0.58057 c 0.4611,0 0.60626,0.0213 0.70541,0.10348 0.0966,0.0801 0.10747,0.12631 0.048,0.20469 -0.0583,0.0768 -0.18593,0.10371 -0.52876,0.1112 -0.24856,0.006 -0.53142,-0.009 -0.62859,-0.0319 z m 5.45385,-0.59548 c -0.12545,-0.0416 -0.15849,-0.092 -0.14132,-0.21562 0.022,-0.1585 0.0316,-0.16155 0.55879,-0.17818 0.43764,-0.0138 0.56619,0.002 0.69835,0.0917 0.13824,0.0926 0.14988,0.12727 0.0794,0.23624 -0.0728,0.11248 -0.13916,0.12722 -0.55703,0.12396 -0.26096,-0.002 -0.54816,-0.0282 -0.63821,-0.0581 z m -5.26964,-0.33872 c -0.23565,-0.044 -0.36777,-0.18437 -0.30366,-0.32263 0.0359,-0.0773 0.15064,-0.0957 0.59836,-0.0957 0.62652,0 0.82,0.0732 0.78204,0.2957 -0.0226,0.13227 -0.0561,0.1436 -0.44835,0.15186 -0.23317,0.005 -0.51596,-0.008 -0.62839,-0.0292 z m 5.46871,-0.58685 c -0.19321,-0.0283 -0.25265,-0.0675 -0.27169,-0.17909 -0.0386,-0.22617 0.14694,-0.29521 0.68674,-0.25555 0.25751,0.019 0.52385,0.058 0.59186,0.0869 0.14264,0.0606 0.16229,0.22697 0.0389,0.32911 -0.0876,0.0725 -0.61296,0.0819 -1.04578,0.0186 z m -2.339,-0.0878 c -0.86879,-0.0637 -1.12342,-0.13165 -1.12342,-0.29949 0,-0.0821 1.05314,-1.30668 1.22572,-1.42523 0.20321,-0.13958 0.36192,-0.0105 0.766,0.62253 0.56395,0.88363 0.58016,0.92587 0.40951,1.06712 -0.077,0.0637 -0.19571,0.11249 -0.26372,0.10816 -0.0681,-0.005 -0.52435,-0.0372 -1.01409,-0.0731 z m 0.60034,-0.81103 c -0.17976,-0.29755 -0.33559,-0.54908 -0.34629,-0.55896 -0.0229,-0.021 -0.88283,0.95683 -0.88283,1.0039 0,0.0296 0.39625,0.0572 1.21961,0.0848 l 0.33636,0.0117 z m -3.69559,0.54844 c -0.20721,-0.0479 -0.32728,-0.19217 -0.26746,-0.32117 0.0341,-0.0734 0.14011,-0.0957 0.45642,-0.0957 0.53947,0 0.73557,0.15667 0.4706,0.37598 -0.11436,0.0946 -0.36144,0.10991 -0.65956,0.0408 z m 5.66939,-0.57511 c -0.33454,-0.0267 -0.47951,-0.13303 -0.41402,-0.30382 0.061,-0.15927 0.20263,-0.18407 0.77202,-0.13528 0.5353,0.046 0.71201,0.15492 0.56521,0.34879 -0.081,0.10699 -0.36493,0.13476 -0.92321,0.0903 z m -5.49942,-0.36179 c -0.23116,-0.0291 -0.28709,-0.0616 -0.30703,-0.17849 -0.0452,-0.26473 0.22023,-0.31382 1.09799,-0.20313 0.25245,0.0318 0.37022,0.20985 0.23081,0.34887 -0.0884,0.0882 -0.48155,0.10068 -1.02177,0.0327 z m 2.81211,-1.08828 c -0.23274,-0.1871 -0.29058,-0.20471 -0.67242,-0.20471 -0.44543,0 -0.69113,-0.0713 -0.69113,-0.20049 0,-0.12433 0.18372,-0.15341 0.71229,-0.11272 0.41242,0.0317 0.48895,0.0235 0.48895,-0.0523 0,-0.10091 -0.14384,-0.16087 -0.38576,-0.16087 -0.18918,0 -0.33488,-0.12052 -0.26265,-0.21725 0.0276,-0.037 0.19021,-0.0755 0.36144,-0.0857 0.40637,-0.0243 0.45011,-0.13921 0.0692,-0.1815 -0.34051,-0.0379 -0.4554,-0.11096 -0.39133,-0.24916 0.0373,-0.0804 0.10263,-0.0911 0.36269,-0.0588 0.28859,0.0359 0.31717,0.0285 0.31717,-0.0812 0,-0.0942 -0.0451,-0.12053 -0.20621,-0.12053 -0.29814,0 -0.42974,-0.0557 -0.42974,-0.18173 0,-0.0939 0.0538,-0.11073 0.35331,-0.11073 0.29703,0 0.35329,-0.0173 0.35329,-0.10851 0,-0.0933 -0.0758,-0.1133 -0.54057,-0.14237 -0.53309,-0.0333 -0.73728,-0.11951 -0.58243,-0.24573 0.0398,-0.0325 0.31669,-0.0589 0.61533,-0.0589 0.53686,0 0.54326,-0.001 0.56496,-0.1573 0.0206,-0.14694 0.002,-0.15849 -0.28265,-0.17546 -0.25402,-0.0152 -0.30834,-0.04 -0.32718,-0.14975 -0.0206,-0.11974 0.006,-0.13158 0.29555,-0.13158 0.26116,0 0.32657,-0.022 0.36526,-0.12286 0.0608,-0.15867 -0.0152,-0.21533 -0.32025,-0.2385 -0.19418,-0.0147 -0.25215,-0.047 -0.26989,-0.15038 -0.0206,-0.11957 0.006,-0.13159 0.29207,-0.13159 0.27872,0 0.31848,-0.0165 0.34811,-0.14485 0.0422,-0.18279 0.0121,-0.20606 -0.26742,-0.20606 -0.2545,0 -0.40775,-0.10956 -0.31922,-0.22809 0.0384,-0.0513 0.15754,-0.0701 0.34926,-0.055 0.27522,0.0217 0.29105,0.0144 0.29105,-0.13316 0,-0.18452 -0.10456,-0.22713 -0.55755,-0.22713 -0.40113,0 -0.64772,-0.1182 -0.51751,-0.24807 0.066,-0.0658 0.206,-0.0789 0.61563,-0.0571 0.50454,0.0268 0.5301,0.0222 0.5301,-0.0965 0,-0.09 -0.0441,-0.12489 -0.15898,-0.12546 -0.32928,-0.001 -0.48523,-0.068 -0.46301,-0.19691 0.0181,-0.10523 0.0691,-0.12396 0.33833,-0.12396 0.23668,0 0.32258,-0.0242 0.33916,-0.0953 0.017,-0.0726 -0.0551,-0.10489 -0.30354,-0.13571 -0.28261,-0.0351 -0.32287,-0.0573 -0.30384,-0.1679 0.019,-0.11027 0.0625,-0.12598 0.32224,-0.11646 0.2496,0.009 0.3003,-0.007 0.3003,-0.0968 0,-0.0904 -0.0831,-0.11587 -0.51228,-0.15728 -0.46694,-0.045 -0.51443,-0.0618 -0.53628,-0.18984 l -0.0241,-0.14044 0.56242,0.0388 0.56244,0.0388 0.0432,-0.22344 c 0.13202,-0.68334 1.28347,-0.68713 1.4511,-0.005 0.0337,0.1372 0.0909,0.20097 0.18724,0.2089 0.94551,0.0778 0.96044,0.0811 0.93782,0.21256 -0.0206,0.11915 -0.0539,0.12584 -0.54504,0.10886 -0.36503,-0.0126 -0.53986,0.005 -0.5783,0.0556 -0.0882,0.11817 -0.005,0.16709 0.2855,0.16709 0.18247,0 0.285,0.0304 0.31403,0.093 0.0696,0.1503 -0.0166,0.19942 -0.35014,0.19942 -0.22112,0 -0.3138,0.0241 -0.3138,0.0815 0,0.10641 0.15517,0.15229 0.51808,0.15327 0.43068,0.001 0.61249,0.0551 0.61249,0.18148 0,0.12615 -0.002,0.12656 -0.68894,0.1112 -0.4267,-0.009 -0.5123,0.005 -0.5123,0.0815 0,0.0636 0.0649,0.093 0.20622,0.093 0.29814,0 0.42974,0.0557 0.42974,0.18172 0,0.1168 -0.0417,0.12856 -0.39917,0.11271 -0.24379,-0.0105 -0.38264,0.0982 -0.22817,0.17914 0.0536,0.0281 0.19732,0.0514 0.31947,0.0519 0.12215,4.4e-4 0.23671,0.0338 0.25458,0.074 0.0683,0.15387 -0.0335,0.21932 -0.34124,0.21932 -0.23031,0 -0.31209,0.023 -0.31209,0.0877 0,0.0607 0.0736,0.0877 0.23866,0.0877 0.24724,0 0.44347,0.12479 0.36388,0.23137 -0.025,0.0336 -0.18912,0.061 -0.36458,0.061 -0.26561,0 -0.31506,0.0172 -0.29552,0.10231 0.0175,0.0766 0.10348,0.10605 0.34082,0.11718 0.64752,0.0303 0.78736,0.0684 0.76339,0.20782 -0.021,0.12218 -0.0497,0.12725 -0.60502,0.10722 -0.49058,-0.0177 -0.58295,-0.006 -0.58295,0.0697 0,0.0601 0.10154,0.10733 0.30031,0.13989 0.23148,0.0379 0.30031,0.0755 0.30031,0.16428 0,0.097 -0.0468,0.11435 -0.29728,0.11026 -0.19621,-0.004 -0.31039,0.0235 -0.33586,0.0783 -0.0581,0.12544 0.0196,0.18956 0.23101,0.19055 0.24948,0.001 0.76571,0.13042 0.8719,0.21832 0.12914,0.10687 -0.0689,0.14449 -0.64241,0.12201 -0.57255,-0.0224 -0.70308,0.088 -0.18066,0.15284 0.18006,0.0223 0.31797,0.0709 0.31797,0.1119 0,0.13939 -0.15446,0.20023 -0.43049,0.16958 -0.22221,-0.0247 -0.27613,-0.0123 -0.27613,0.0637 0,0.0875 0.0963,0.12273 0.45931,0.16819 0.0867,0.0105 0.14132,0.0627 0.14132,0.13386 0,0.094 -0.0597,0.12175 -0.31249,0.14542 -0.52011,0.0486 -0.43083,0.15988 0.16549,0.20613 0.52539,0.0407 0.73984,0.13021 0.63827,0.26624 -0.0344,0.0462 -0.22694,0.0596 -0.59792,0.0419 l -0.54705,-0.0262 -0.0433,0.35543 c -0.0361,0.29717 -0.0783,0.3818 -0.25721,0.51626 -0.32072,0.24113 -0.70426,0.22493 -1.03864,-0.0438 z m 0.77648,-0.19085 c 0.0879,-0.0803 0.14525,-0.43899 0.25983,-1.62295 0.0809,-0.83591 0.22672,-2.31636 0.32407,-3.2899 0.12888,-1.28889 0.15659,-1.80162 0.10191,-1.88613 -0.0909,-0.14064 -0.43588,-0.15681 -0.56648,-0.0265 -0.0543,0.0541 -0.1261,0.46413 -0.18182,1.0381 -0.54194,5.58301 -0.54707,5.65467 -0.41439,5.77603 0.15541,0.14212 0.32936,0.1463 0.47684,0.0117 z m -3.45048,-0.0405 c -0.0954,-0.0789 -0.17344,-0.18067 -0.17344,-0.22604 0,-0.1428 0.28611,-0.3907 0.45092,-0.3907 0.38488,0 0.57061,0.3438 0.32522,0.602 -0.18674,0.1965 -0.37747,0.20117 -0.6027,0.0147 z m 5.8681,-0.27771 c -0.1907,-0.0889 -0.24494,-0.16477 -0.24622,-0.34459 -0.002,-0.30324 0.48502,-0.46235 0.72991,-0.23839 0.13771,0.12594 0.15484,0.43847 0.0286,0.52206 -0.1562,0.10348 -0.36721,0.12853 -0.5123,0.0609 z m 0.0109,-1.38174 c -0.38343,-0.35067 0.18706,-0.8696 0.58967,-0.53637 0.17656,0.14613 0.1826,0.41883 0.0121,0.54653 -0.17065,0.12784 -0.45616,0.12301 -0.60178,-0.0105 z m -5.72047,-0.40655 c -0.24054,-0.22001 -0.0564,-0.59844 0.29027,-0.5968 0.36603,10e-4 0.57255,0.25187 0.42266,0.51196 -0.11835,0.20549 -0.52774,0.2542 -0.71293,0.0849 z m 5.9019,-0.8642 c -0.31822,-0.18447 -0.13364,-0.66926 0.25481,-0.66926 0.20642,0 0.43608,0.20021 0.43608,0.38015 0,0.16967 -0.22604,0.38015 -0.40824,0.38015 -0.069,0 -0.19627,-0.0409 -0.28265,-0.0911 z m -5.61492,-1.61964 c -0.1828,-0.11657 -0.18962,-0.3909 -0.0133,-0.5368 0.26386,-0.21839 0.73689,-0.0309 0.73689,0.2922 0,0.25952 -0.45762,0.41423 -0.72355,0.2446 z m 5.9525,-0.26571 c -0.18845,-0.0486 -0.35331,-0.20253 -0.35331,-0.3298 0,-0.43446 0.7517,-0.53397 0.87837,-0.11623 0.0802,0.26441 -0.22486,0.52356 -0.52506,0.44608 z m 0.0171,-1.06736 c -0.0878,-0.0289 -0.19662,-0.11985 -0.24193,-0.20213 -0.0694,-0.12614 -0.06,-0.17457 0.0606,-0.30875 0.1818,-0.20244 0.46187,-0.2345 0.65464,-0.075 0.35478,0.29364 -0.006,0.73978 -0.47326,0.58584 z m -5.7956,-0.32243 c -0.1876,-0.10875 -0.21576,-0.43916 -0.0473,-0.55488 0.16376,-0.11248 0.53019,-0.0935 0.64219,0.0332 0.21709,0.24573 0.0207,0.61267 -0.32798,0.61267 -0.0604,0 -0.18055,-0.0409 -0.26692,-0.0911 z m -40.434224,5.9923 c 4.909657,-0.20316 4.831831,-0.19442 4.791486,-0.53849 -0.03853,-0.32845 -0.06722,-0.33001 -3.378254,-0.18254 -1.651714,0.0735 -3.915063,0.17313 -5.029652,0.22127 -1.131053,0.0489 -2.091182,0.11622 -2.172846,0.15234 -0.181879,0.0806 -0.193472,0.32972 -0.0227,0.48703 0.110344,0.10161 0.188265,0.11026 0.724277,0.08 0.330348,-0.0186 2.61979,-0.11746 5.087655,-0.21959 z m -0.406307,-1.20308 2.384838,-0.10044 -2.7e-4,-0.14958 c -1.76e-4,-0.0823 -0.03185,-0.57068 -0.07031,-1.08534 -0.03853,-0.51466 -0.182896,-2.75072 -0.320885,-4.969 -0.137989,-2.21829 -0.266128,-4.04586 -0.284744,-4.06127 -0.03954,-0.0327 -4.997203,0.16955 -5.042499,0.20571 -0.03882,0.031 -0.04746,-0.13169 0.281617,5.28424 0.15336,2.52398 0.278842,4.67548 0.278842,4.78112 0,0.23336 -0.290311,0.22347 2.773473,0.0945 z m -1.846688,-0.80078 c -0.05024,-0.0502 -0.132899,-0.92117 -0.223329,-2.35402 -0.07895,-1.25094 -0.198569,-3.11391 -0.265835,-4.13995 -0.08636,-1.31734 -0.100649,-1.90165 -0.0487,-1.98848 0.08681,-0.145 0.401327,-0.19246 0.51621,-0.0779 0.0498,0.0497 0.122368,0.72466 0.190505,1.77212 0.06056,0.93054 0.172468,2.63933 0.248743,3.79733 0.1625,2.46696 0.170475,2.90445 0.0547,3.00027 -0.113765,0.0941 -0.373673,0.089 -0.47232,-0.009 z m 50.257569,-5.98823 c 0.0859,-0.43058 0.0476,-1.54017 -0.0656,-1.90226 -0.28902,-0.92315 -1.11032,-1.73799 -2.1614,-2.14436 -1.85636,-0.71772 -4.01792,-0.48265 -5.29425,0.57576 -0.79121,0.65611 -1.15975,1.4515 -1.20848,2.60821 l -0.0222,0.52636 0.77729,0.0492 c 0.4275,0.027 2.23996,0.14914 4.02769,0.27128 1.78774,0.12215 3.3973,0.22502 3.57683,0.22861 0.32411,0.006 0.3267,0.005 0.37018,-0.2128 z m -7.83178,-0.9489 c -0.34853,-0.31877 0.2765,-1.64684 1.03093,-2.19047 0.36651,-0.26411 1.04084,-0.54009 1.44899,-0.59303 0.2495,-0.0324 0.3067,-0.0192 0.401,0.0923 0.17948,0.21209 0.0571,0.35729 -0.41607,0.49353 -0.59305,0.17076 -0.80881,0.28005 -1.14021,0.57763 -0.38247,0.34343 -0.57213,0.66149 -0.69878,1.17185 -0.13377,0.53916 -0.354,0.69688 -0.62586,0.44825 z m -41.091475,-3.12979 c 0.952169,-0.045 1.744101,-0.0832 1.759853,-0.085 0.01575,-0.002 0.008,-0.39145 -0.01736,-0.86591 -0.04181,-0.78481 -0.126579,-1.20038 -0.939463,-4.60567 -0.491427,-2.05866 -0.917544,-3.76529 -0.946925,-3.79251 -0.02936,-0.0272 -0.366759,-0.0272 -0.749726,0 l -0.696294,0.0495 -0.05046,0.38015 c -0.02775,0.20909 -0.226479,1.8753 -0.441635,3.70269 -0.385764,3.27633 -0.43549,3.97538 -0.345507,4.85651 l 0.0457,0.44745 0.325273,-0.002 c 0.178905,-0.001 1.104321,-0.0394 2.05649,-0.0844 z m 46.242995,-1.07861 c -0.0261,-0.19082 -0.007,-0.92271 0.041,-1.6264 0.0799,-1.15686 0.0769,-1.32676 -0.0319,-1.77313 -0.14869,-0.6102 -0.32847,-0.95811 -0.54496,-1.05458 -0.0912,-0.0406 -0.31939,-0.0758 -0.5073,-0.0781 -0.4419,-0.006 -0.58696,0.12843 -0.89038,0.82249 -0.22741,0.52015 -0.26442,0.70991 -0.46051,2.36063 -0.0592,0.49858 -0.14973,1.04034 -0.2011,1.20389 l -0.0934,0.29738 0.92288,0.005 c 0.5679,0.002 1.07238,0.0381 1.31152,0.091 0.21375,0.0472 0.41407,0.0888 0.44515,0.0923 0.0311,0.004 0.0352,-0.14967 0.01,-0.34049 z"
       id="path1" />
</svg>
