<svg xmlns="http://www.w3.org/2000/svg" viewBox="0 0 512 512">
  <rect width="512" height="512" rx="96" fill="#235347"/>
  <path fill="#f6f7f4" d="M136 112h240c22 0 40 18 40 40v208c0 22-18 40-40 40H136c-22 0-40-18-40-40V152c0-22 18-40 40-40Zm0 48v150l58-58c9-9 24-9 34 0l34 34 72-72c9-9 24-9 34 0l48 48V152c0-13-11-24-24-24H136c-13 0-24 11-24 24Zm72 72a40 40 0 1 0 0-80 40 40 0 0 0 0 80Z"/>
  <path fill="#c6d8ce" d="M112 335v25c0 13 11 24 24 24h240c13 0 24-11 24-24v-64l-48-48-90 90-51-51-99 48Z"/>
</svg>
